<svg width="45" height="45" viewBox="0 0 45 45" fill="none" xmlns="http://www.w3.org/2000/svg">
<g id="icons8-expresar-js 1" clip-path="url(#clip0_405_902)">
<path id="Vector" d="M41.6306 35.4375C40.5338 35.4375 39.4819 34.9166 38.8159 34.0459L32.517 25.8098L26.217 34.0459C25.551 34.9166 24.4991 35.4375 23.4023 35.4375H20.9048L30.3919 23.031L20.9531 10.6875H23.4506C24.5475 10.6875 25.6005 11.2073 26.2654 12.078L32.5159 20.2523L38.7675 12.078C39.4324 11.2073 40.4854 10.6875 41.5823 10.6875H44.0798L34.6399 23.031L44.1281 35.4375H41.6306Z" fill="#B0C1D4"/>
<path id="Vector_2" d="M42.9412 11.25L33.9323 23.031L42.9896 34.875H41.6306C40.7025 34.875 39.8261 34.4419 39.2625 33.705L32.517 24.8839L25.7715 33.705C25.2079 34.443 24.3315 34.875 23.4034 34.875H22.0444L31.1018 23.031L22.0905 11.25H23.4495C24.3776 11.25 25.254 11.6831 25.8176 12.42L32.5159 21.1781L39.2141 12.42C39.7778 11.682 40.6541 11.25 41.5823 11.25H42.9412ZM45.2183 10.125H42.9412H41.5823C40.3121 10.125 39.0926 10.728 38.3209 11.7371L32.517 19.3275L26.7131 11.7371C25.9403 10.728 24.7208 10.125 23.4506 10.125H22.0916H19.8146L21.1972 11.9329L29.6843 23.031L21.15 34.191L19.7663 36H22.0433H23.4023C24.6724 36 25.8919 35.397 26.6636 34.3879L32.5159 26.7345L38.3681 34.3879C39.1399 35.397 40.3594 36 41.6306 36H42.9896H45.2666L43.884 34.1921L35.3498 23.0321L43.8368 11.934L45.2183 10.125Z" fill="#66798F"/>
<g id="Group">
<path id="Vector_3" d="M11.25 36.5625C5.35725 36.5625 0.5625 31.6024 0.5625 25.506V20.6179C0.5625 14.5226 5.35725 9.5625 11.25 9.5625C17.1427 9.5625 21.9375 14.5215 21.9375 20.6179V25.3114L3.9375 25.3125V25.506C3.9375 29.7416 7.218 33.1875 11.25 33.1875C13.4741 33.1875 15.6296 32.067 17.0156 30.1916C17.7221 29.2342 18.7605 28.6864 19.8641 28.6864H21.5168L21.2378 29.4435C19.6695 33.7016 15.6566 36.5625 11.25 36.5625ZM18.5625 21.9375V20.6179C18.5625 16.3822 15.282 12.9375 11.25 12.9375C7.218 12.9375 3.9375 16.3822 3.9375 20.6179V21.9375H18.5625Z" fill="#B0C1D4"/>
<path id="Vector_4" d="M11.25 10.125C16.8323 10.125 21.375 14.8331 21.375 20.6179V24.75H3.375V25.506C3.375 30.0521 6.9075 33.75 11.25 33.75C13.7115 33.75 16.0009 32.5103 17.4679 30.5258C18.0394 29.7529 18.9023 29.25 19.8641 29.25H20.7101L20.7113 29.2511C19.224 33.2876 15.4193 36.0011 11.25 36.0011C5.66775 36.0011 1.125 31.293 1.125 25.5071V20.619C1.125 14.8331 5.66775 10.125 11.25 10.125ZM3.375 22.5H19.125V20.6179C19.125 16.0729 15.5925 12.375 11.25 12.375C6.9075 12.375 3.375 16.0729 3.375 20.6179V22.5ZM11.25 9C5.04675 9 0 14.2121 0 20.6179V25.506C0 31.9129 5.04675 37.125 11.25 37.125C15.8906 37.125 20.1161 34.1168 21.7665 29.6393L22.3234 28.1273L20.7124 28.125H19.8653C18.5805 28.125 17.3779 28.7561 16.5634 29.8575C15.282 31.59 13.2964 32.625 11.25 32.625C7.6455 32.625 4.69125 29.6291 4.509 25.875H21.375H22.5V24.75V20.619C22.5 14.2121 17.4533 9 11.25 9ZM4.5 21.375V20.6179C4.5 16.6927 7.5285 13.5 11.25 13.5C14.9715 13.5 18 16.6927 18 20.6179V21.375H4.5Z" fill="#66798F"/>
</g>
</g>
<defs>
<clipPath id="clip0_405_902">
<rect width="45" height="45" fill="white"/>
</clipPath>
</defs>
</svg>
