<svg width="38" height="38" viewBox="0 0 38 38" fill="none" xmlns="http://www.w3.org/2000/svg">
<g id="icons8-redux 1">
<path id="Vector" d="M18.24 1.52002C12.7923 1.52002 8.36 7.82219 8.36 15.5696C8.36 19.5719 9.54935 23.176 11.446 25.7331C11.3745 26.117 11.3885 26.5119 11.4868 26.8898C11.5851 27.2677 11.7654 27.6193 12.0149 27.9197C12.2644 28.22 12.577 28.4618 12.9304 28.6278C13.2839 28.7937 13.6695 28.8799 14.06 28.88C14.7655 28.88 15.4421 28.5998 15.9409 28.1009C16.4397 27.6021 16.72 26.9255 16.72 26.22C16.72 25.5145 16.4397 24.838 15.9409 24.3391C15.4421 23.8403 14.7655 23.56 14.06 23.56C13.9152 23.5611 13.7707 23.574 13.628 23.5986C12.2691 21.5743 11.4 18.7047 11.4 15.5696C11.4 9.60135 14.5327 4.56002 18.24 4.56002C21.3704 4.56002 24.0837 8.16052 24.8544 12.8725C25.9351 13.1826 27.0117 13.6021 28.0666 14.109C27.5513 7.04556 23.3411 1.52002 18.24 1.52002ZM17.1 12.92C16.3945 12.92 15.7179 13.2003 15.2191 13.6991C14.7202 14.198 14.44 14.8745 14.44 15.58C14.44 16.2855 14.7202 16.9621 15.2191 17.4609C15.7179 17.9598 16.3945 18.24 17.1 18.24C17.5972 18.2398 18.0845 18.1001 18.5064 17.837C18.9283 17.5738 19.2679 17.1976 19.4869 16.7512C21.9567 16.5965 24.811 17.3585 27.4461 18.9377C32.6597 22.0636 35.4949 27.5295 33.6359 30.8735C33.0249 31.9725 31.9241 32.7628 30.452 33.1565C28.3323 33.7235 25.733 33.4352 23.1726 32.4054C22.3601 33.1609 21.4669 33.87 20.4918 34.5221C23.0211 35.7997 25.696 36.4771 28.1675 36.4771C29.2391 36.4771 30.2735 36.351 31.2387 36.0926C33.524 35.4808 35.2723 34.1866 36.293 32.3505C39.0168 27.4492 35.8172 20.4123 29.0091 16.3311C25.7697 14.3882 22.181 13.4929 19.0267 13.7513C18.7787 13.4893 18.48 13.2805 18.1488 13.1376C17.8176 12.9947 17.4607 12.9207 17.1 12.92ZM6.96172 17.7264C1.58016 21.8844 -0.728044 27.9676 1.70852 32.3505C2.7292 34.1866 4.47749 35.4808 6.76281 36.0926C7.72877 36.351 8.76086 36.4771 9.83398 36.4771C12.722 36.4771 15.8916 35.5602 18.7773 33.8304C22.0057 31.8949 24.3928 29.2932 25.7465 26.5718C27.0773 26.4268 28.12 25.3088 28.12 23.94C28.12 22.4732 26.9268 21.28 25.46 21.28C23.9932 21.28 22.8 22.4732 22.8 23.94C22.8 24.3506 22.9004 24.7355 23.0672 25.083C21.9698 27.3438 19.9222 29.5985 17.2143 31.2224C13.9493 33.1801 10.3357 33.9036 7.54805 33.1565C6.07669 32.7628 4.97659 31.9725 4.36555 30.8735C2.89571 28.2287 4.36719 24.2619 7.62226 21.1702C7.30991 20.0758 7.08636 18.9234 6.96172 17.7264Z" fill="black"/>
</g>
</svg>
